<svg width="12" height="22" viewBox="0 0 12 22" fill="none" xmlns="http://www.w3.org/2000/svg">
<path d="M11.436 11.0715C11.436 9.59907 10.6327 8.82781 9.54598 8.82781H6.38023C6.61648 7.56575 6.71098 6.3738 6.71098 5.32208C6.71098 1.25544 5.95498 0.414062 5.29348 0.414062C4.86823 0.414062 4.53748 0.484177 4.11223 0.83475C3.97048 0.974979 3.92323 1.11521 3.87598 1.32555L3.40348 5.11174C2.88373 7.07495 1.60798 8.82781 0.568481 10.0198V20.0461C0.946481 20.0461 1.32448 20.3266 1.79698 20.6772C2.31673 21.0277 2.83648 21.4484 3.40348 21.4484H7.89223C8.83723 21.4484 9.54598 20.3266 9.54598 19.345C9.54598 19.1347 9.54598 18.9944 9.49873 18.8542C10.0657 18.5036 10.491 17.8025 10.491 16.891C10.491 16.4703 10.4437 16.1197 10.3492 15.7692C10.7272 15.4186 11.058 14.7875 11.058 14.0864C11.058 13.6657 10.9162 13.245 10.7745 12.8945C11.1525 12.4738 11.436 11.7726 11.436 11.0715ZM10.4437 11.0715C10.4437 11.983 9.82948 12.0531 9.73498 12.4738C9.64048 12.9646 10.113 13.1048 10.113 13.9462C10.113 14.7875 9.40423 14.7875 9.30973 15.2784C9.21523 15.8393 9.54598 15.9795 9.54598 16.8209V16.9611C9.45148 17.6622 8.74273 17.7324 8.60098 18.0128C8.45923 18.3634 8.60098 18.5036 8.60098 19.2749C8.60098 19.6956 8.27023 19.976 7.89223 19.976H3.40348C3.02548 19.976 2.64748 19.6956 2.17498 19.345C1.79698 19.0645 1.41898 18.7841 1.04098 18.6439V11.2818C2.22223 9.94964 3.73423 7.98644 4.30123 5.53243V5.3922L4.72648 1.88647C4.91548 1.81635 5.05723 1.81635 5.29348 1.81635C5.38798 1.81635 5.76598 2.65773 5.76598 5.32208C5.76598 6.3738 5.62423 7.49563 5.38798 8.82781H5.29348C5.00998 8.82781 4.82098 9.10827 4.82098 9.52896C4.82098 9.94964 5.00998 10.2301 5.29348 10.2301H9.54598C10.0185 10.2301 10.4437 10.5807 10.4437 11.0715Z" fill="#BDBDBD"/>
</svg>
